<?xml version="1.0" encoding="utf-8" ?>
<svg xmlns="http://www.w3.org/2000/svg" xmlns:xlink="http://www.w3.org/1999/xlink" width="1024" height="1024">
	<path fill="#EBEBEB" d="M0 -0L1024 0L1024 1024L-0 1024L0 -0Z"/>
	<path fill="#00A9E2" d="M665.645 504.726L665.431 553.863C665.001 557.533 663.173 561.501 660.669 564.201C656.964 568.198 651.243 570.965 646.737 574.01L615.11 595.889L615.421 537.061L665.645 504.726Z"/>
	<path fill="#00A9E2" d="M407.808 422.698L408.031 484.554L359.965 516.54L359.355 516L359.109 482.734C359.087 476.776 358.601 470.341 359.283 464.438C359.657 461.191 361.042 458.027 363.165 455.531C366.962 451.065 374.091 447.359 378.948 443.925L407.808 422.698Z"/>
	<path fill="#23233B" d="M812.945 534.014L812.816 534.629C811.411 541.625 811.294 548.586 809.588 555.628C808.829 558.759 807.705 560.866 805.512 563.244L804.911 564.004C803.332 565.962 800.722 567.701 798.872 569.538C783.144 585.147 766.07 597.719 747.063 609.094C743.681 611.118 723.661 621.246 722.828 622.561L723.021 623.328C720.11 625.015 716.66 626.11 713.529 627.356C703.382 631.394 692.779 634.504 682.112 636.821C679.059 637.484 675.045 638.733 671.956 638.363C677.254 631.341 682.725 624.335 687.237 616.768L691.85 608.526C692.333 607.671 693.136 605.735 693.793 605.1C694.05 604.851 695.626 604.443 696.021 604.307L703.02 601.868L719 595.458C753.434 580.042 784.733 558.979 812.945 534.014Z"/>
	<path fill="#23233B" d="M173.062 656.496L169.08 646.121C167.542 641.517 168.639 637.514 169.346 632.816C171.977 615.334 178.167 598.149 186.064 582.375C213.376 527.824 268.628 487.384 325.557 468.319C323.817 470.293 321.056 471.902 318.93 473.504L306.069 483.313L285.89 498.556C275.352 506.889 264.972 515.369 255.375 524.786C252.372 527.731 249.004 530.637 246.386 533.905C241.605 538.512 236.182 543.59 232.255 548.937L225.902 556.502L219.461 565.011C218.548 566.268 217.19 567.734 216.551 569.134C212.399 572.004 209.38 577.899 206.754 582.198C196.662 598.715 188.142 615.805 181.508 634C179.093 640.624 177.932 648.057 175.257 654.455C174.879 655.358 173.83 655.905 173.062 656.496Z"/>
	<path fill="#9B9C9B" d="M229.641 445.503C249.352 430.486 269.566 416.655 291.591 405.235C308.769 396.328 326.281 388.346 344.759 382.523C346.833 381.87 350.776 380.036 352.762 380.666C345.813 388.354 340.078 396.147 334.616 404.963L329.508 413.5C328.814 414.691 327.974 416.662 327.07 417.647C325.702 419.139 319.004 420.898 316.91 421.833L286.175 436.887C266.455 447.773 247.351 460.067 229.91 474.363C222.002 480.844 214.609 488.013 207.168 495.02C207.628 482.412 210.308 471.505 215.257 459.887C215.337 458.93 215.496 458.042 215.677 457.1L216.25 457.943L229.641 445.503Z"/>
	<defs>
		<linearGradient id="gradient_0" gradientUnits="userSpaceOnUse" x1="871.09979" y1="405.28922" x2="690.36188" y2="535.09985">
			<stop offset="0" stop-color="#012648"/>
			<stop offset="1" stop-color="#4B4B56"/>
		</linearGradient>
	</defs>
	<path fill="url(#gradient_0)" d="M806.611 452.798C809.256 450.899 811.533 447.774 813.608 445.264C825.62 430.732 835.026 413.428 842.656 396.241C845.761 389.247 848.182 381.223 851.883 374.612L852.095 374.24C852.913 378.006 852.607 382.074 852.542 385.907C852.097 411.91 841.494 438.087 827.594 459.746C797.193 507.119 749.944 543.266 694.46 555.238L693.731 555.395L711 546.998C712.873 546.062 715.957 545.113 717.164 543.419L718.435 524.293C723.498 522.184 728.252 519.402 733 516.677C742.234 511.378 751.09 505.704 759.5 499.153L772.745 488.25C774.567 486.891 775.967 485.08 777.745 483.75C782.442 480.237 788.332 474.483 791.745 469.75C793.329 467.554 795.82 466.201 797.239 463.773C800.519 461.341 804.37 456.251 806.611 452.798Z"/>
	<path fill="#2C4268" d="M407.513 496.588C408.005 499.284 407.625 502.573 407.594 505.33L407.42 522.323C407.404 526.636 407.2 530.731 409.326 534.653C410.598 536.998 412.574 539.037 414.729 540.581C422.778 546.353 431.978 551.102 440.383 556.391L493.97 590.416C498.706 593.368 503.972 598.163 509.363 599.612C512.274 600.394 515.679 599.994 518.443 598.827C521.232 597.65 523.869 595.523 526.383 593.83L539 585.517L587.477 554.107L606.479 541.685L606.031 591.285L577.84 610.35L521.466 647.211C517.327 649.637 511.703 650.529 507.031 649.105C501.033 647.277 495.285 642.115 489.971 638.799L447.423 612.135L390.885 576.208C383.221 571.242 374.995 566.518 367.685 561.083C365.024 559.104 362.675 556.899 361.203 553.884L360.841 553.113C357.813 546.775 359.034 536.031 358.958 528.914C361.592 525.63 367.916 522.435 371.548 520.032L407.513 496.588Z"/>
	<defs>
		<linearGradient id="gradient_1" gradientUnits="userSpaceOnUse" x1="543.11603" y1="526.16455" x2="538.35138" y2="365.73224">
			<stop offset="0" stop-color="#24A0D8"/>
			<stop offset="1" stop-color="#5CC7E4"/>
		</linearGradient>
	</defs>
	<path fill="url(#gradient_1)" d="M513.229 365.536C516.413 366.664 519.205 368.819 522.034 370.64L537.078 380.307L618.737 433.626L648.008 452.428C652.203 455.079 657.932 457.548 661.355 461.056C663.074 462.818 664.613 465.251 665.314 467.62C666.007 469.964 665.624 473.174 665.625 475.643L665.587 493.089L615 526.447L615.072 500.861C615.076 496.836 615.59 491.849 614.688 487.925C613.974 484.824 612.887 481.956 610.753 479.54C607.456 475.807 602.213 473.155 598 470.508L579.775 458.875L538.691 432.533L526.589 424.771C522.96 422.419 519.669 419.991 515.333 419.177C511.802 418.514 508.405 418.83 505.103 420.262C502.268 421.491 499.533 423.499 496.928 425.181L481.063 435.673L417.764 476.6L417.997 425.256C424.731 420.401 431.963 416.212 438.966 411.762L475.219 388.701L494.556 376.421C500.558 372.516 506.451 367.959 513.229 365.536Z"/>
	<path fill="#23233B" d="M645.346 258.404C660.252 266.927 674.951 275.686 688.646 286.092C737.144 322.939 774.982 376.045 791.038 435L797.239 463.773C795.82 466.201 793.329 467.554 791.745 469.75C788.332 474.483 782.442 480.237 777.745 483.75C775.967 485.08 774.567 486.891 772.745 488.25L759.5 499.153C751.09 505.704 742.234 511.378 733 516.677C728.252 519.402 723.498 522.184 718.435 524.293C719.569 501.914 716.47 480.748 711.114 459.068C708.715 451.905 706.563 444.618 703.643 437.646C689.336 403.491 665.993 371.78 636.012 349.742C626.286 342.593 615.909 336.738 605.47 330.739C592.397 324.57 579.603 319.005 565.54 315.446L556.46 312.929C559.256 311.083 561.79 308.469 564.338 306.278L576.058 296.881C590.007 286.401 605.081 277.757 620.479 269.627L638.915 261.314L645.346 258.404Z"/>
	<defs>
		<linearGradient id="gradient_2" gradientUnits="userSpaceOnUse" x1="745.73407" y1="424.19168" x2="583.09076" y2="292.63449">
			<stop offset="0" stop-color="#2D394D"/>
			<stop offset="1" stop-color="#8D949D"/>
		</linearGradient>
	</defs>
	<path fill="url(#gradient_2)" d="M565.54 315.446C571.027 312.566 576.642 307.133 581.47 303.155C594.735 292.229 607.667 280.279 621.787 270.474L629.329 274.314C632.936 276.585 637.324 278.437 640.632 281.065C650.806 286.364 660.327 293.347 669.39 300.369C701.877 325.541 729.093 356.372 747.965 393.021C750.917 398.753 754.729 405.127 756.62 411.274L756.745 411.75L756.163 411.837L756.031 411.327C755.459 409.479 754.373 407.835 753.759 405.995C753.054 403.88 751.618 401.766 750.617 399.758L741.181 381.861C740.364 380.203 741.21 381.759 740.08 380.248L739.595 379.246C739.188 378.352 738.73 377.64 738.163 376.837L731.58 366.748L729.43 363.414C728.876 362.544 729.156 362.953 728.531 362.172L723.937 355.919C723.478 355.197 723.015 354.739 722.387 354.171C720.937 357.439 719.774 361.949 716.739 363.906C715.092 364.968 713.983 366.723 713.026 368.382C709.695 374.152 704.849 378.705 700.162 383.342C698.721 384.768 696.885 386.182 695.638 387.709C694.664 388.902 693.382 389.042 692.152 389.847C689.899 391.32 688.003 393.324 685.639 394.82L684.644 395.507C683.671 396.173 683.618 396.069 682.432 395.934C682.569 397.357 684.028 399.251 684.828 400.5L685.217 401.002C686.007 402.033 686.558 403.139 687.365 404.182L688 405.25L700.627 428.599C702.113 431.356 703.771 435.048 704.746 438.024C705.653 440.788 707.011 443.37 707.817 446.183C708.315 447.92 709.031 449.578 709.59 451.277L709.817 452.183L710.745 455.25L710.91 455.808C711.265 457.04 711.389 457.773 711.114 459.068C708.715 451.905 706.563 444.618 703.643 437.646C689.336 403.491 665.993 371.78 636.012 349.742C626.286 342.593 615.909 336.738 605.47 330.739C592.397 324.57 579.603 319.005 565.54 315.446Z"/>
	<defs>
		<linearGradient id="gradient_3" gradientUnits="userSpaceOnUse" x1="369.21613" y1="761.3609" x2="324.82907" y2="480.44583">
			<stop offset="0" stop-color="#0565BC"/>
			<stop offset="1" stop-color="#14D0F1"/>
		</linearGradient>
	</defs>
	<path fill="url(#gradient_3)" d="M306.069 483.313C305.679 497.953 305.363 512.788 306.89 527.377C311.807 574.335 332.361 619.563 364.839 653.808C373.696 663.147 382.962 671.71 393.366 679.309L406.397 688.157C415.994 693.308 425.297 698.48 435.399 702.642C447.937 707.807 460.864 711.055 474.12 713.723C470.248 717.055 463.875 719.03 459.176 721.236L422.402 738.22L386.625 754.892C381.689 757.12 375.931 758.69 371.393 761.574L364.859 757.754C364.625 757.677 364.406 757.562 364.187 757.45C354.18 752.347 344.442 745.22 335.542 738.403C295.619 707.825 261.429 665.786 243.676 618.382C238.912 605.663 234.677 592.588 231.381 579.408C229.569 572.159 228.611 564.281 226.172 557.251L225.902 556.502L232.255 548.937C236.182 543.59 241.605 538.512 246.386 533.905C249.004 530.637 252.372 527.731 255.375 524.786C264.972 515.369 275.352 506.889 285.89 498.556L306.069 483.313Z"/>
	<defs>
		<linearGradient id="gradient_4" gradientUnits="userSpaceOnUse" x1="389.30014" y1="736.90527" x2="247.63226" y2="523.84674">
			<stop offset="0" stop-color="#0082CF"/>
			<stop offset="1" stop-color="#9CDEF0"/>
		</linearGradient>
	</defs>
	<path fill="url(#gradient_4)" d="M285.89 498.556L286.151 499.181C286.78 500.807 286.534 503.218 286.579 504.991L287.179 515.081L290.556 541.546C295.145 567.742 304.497 591.986 317.505 615.107C326.832 631.685 336.614 646.151 349.885 659.904C354.577 664.766 359.776 670.783 365.502 674.418L367.336 675.916C368.009 676.481 367.481 676.048 368.248 676.572C369.746 677.595 371.105 679.067 372.5 680.25L395.25 696.755C396.357 697.476 397.368 697.977 398.25 699L398.75 699.045C400.475 699.397 402.127 701.139 403.67 701.991C405.458 702.978 407.33 703.431 408.75 705L409.497 705.003L410.17 705.58C411.239 706.354 413.199 707.246 414.5 707.255C415.756 708.092 416.883 708.888 418.312 709.409C419.264 709.756 419.463 710.015 420.25 710.5C421.011 710.97 421.381 710.687 422.17 710.913C422.971 711.143 424.349 712.286 425 712.863L424.986 713.75C418.832 716.799 412.033 721.009 405.476 722.816C401.097 722.18 396.077 720.285 391.782 719.017C374.396 713.887 355.688 708.547 340.005 699.239C331.131 695.685 322.152 689.374 314.411 683.725C282.139 660.173 258.355 628.269 243.764 591.264C240.597 583.232 237.031 574.132 235.699 565.583L232.255 548.937C236.182 543.59 241.605 538.512 246.386 533.905C249.004 530.637 252.372 527.731 255.375 524.786C264.972 515.369 275.352 506.889 285.89 498.556Z"/>
	<defs>
		<linearGradient id="gradient_5" gradientUnits="userSpaceOnUse" x1="506.32407" y1="543.73126" x2="464.48776" y2="147.37073">
			<stop offset="0" stop-color="#072561"/>
			<stop offset="1" stop-color="#12ADD9"/>
		</linearGradient>
	</defs>
	<path fill="url(#gradient_5)" d="M295.849 214.552C302.208 209.167 309.887 204.74 316.978 200.377C342.683 184.559 368.877 171.728 397.614 162.336C441.239 148.077 486.679 143.402 532.372 146.136C559.225 147.743 585.285 151.704 611.158 159.165C621.526 162.155 633.444 164.908 643.053 169.781C667.46 178.254 691.221 190.661 712.833 204.782C769.346 241.708 813.487 292.224 842.897 352.938L852.095 374.24L851.883 374.612C848.182 381.223 845.761 389.247 842.656 396.241C835.026 413.428 825.62 430.732 813.608 445.264C811.533 447.774 809.256 450.899 806.611 452.798C804.37 456.251 800.519 461.341 797.239 463.773L791.038 435C774.982 376.045 737.144 322.939 688.646 286.092C674.951 275.686 660.252 266.927 645.346 258.404L638.915 261.314L620.479 269.627C605.081 277.757 590.007 286.401 576.058 296.881L564.338 306.278C561.79 308.469 559.256 311.083 556.46 312.929C508.123 303.1 458.771 309.12 414.576 331.097C407.129 334.8 400.098 339.426 393.181 344.022C378.367 353.866 363.596 366.555 352.762 380.666C350.776 380.036 346.833 381.87 344.759 382.523C326.281 388.346 308.769 396.328 291.591 405.235C269.566 416.655 249.352 430.486 229.641 445.503L216.25 457.943L215.677 457.1C215.496 458.042 215.337 458.93 215.257 459.887C210.308 471.505 207.628 482.412 207.168 495.02C191.211 512.052 176.021 530.181 164.598 550.637L155.578 567.634C153.169 572.612 151.068 577.811 148.313 582.602C146.6 573.85 145.699 564.836 144.687 555.972C139.938 514.385 141.72 472.006 151.226 431.203C153.045 423.398 154.738 414.735 157.789 407.341C158.486 403.816 159.851 400.307 160.973 396.893C163.989 387.712 167.595 378.783 171.471 369.934C192.682 321.502 222.332 279.15 261.139 243.142C272.094 232.978 283.552 223.068 295.849 214.552Z"/>
	<path fill="#EBEBEB" d="M361.413 254.396C381.09 243.766 400.894 234.495 422.232 227.614C457.999 216.079 497.239 211.729 534.683 214.629C547.638 215.632 560.129 218.116 572.932 219.933C588.205 224.016 603.371 227.725 618.165 233.427C682.904 258.382 739.194 305.528 774.008 365.672C789.826 392.999 800.395 421.853 806.611 452.798C804.37 456.251 800.519 461.341 797.239 463.773L791.038 435C774.982 376.045 737.144 322.939 688.646 286.092C674.951 275.686 660.252 266.927 645.346 258.404C639.687 254.289 631.097 251.113 624.555 248.393C579.813 229.792 530.046 221.719 481.75 227.059C453.025 230.235 425.285 237.837 398.619 248.85C393.849 250.181 389.289 252.641 384.846 254.806L369.477 262.805C324.226 288.92 284.34 326.876 258.533 372.546C252.093 383.943 246.687 396.007 241.615 408.064C236.686 419.781 231.473 432.896 229.641 445.503L216.25 457.943L215.677 457.1L220.167 436.056C240.414 359.286 293.255 294.196 361.413 254.396Z"/>
	<path fill="#C5C6C6" d="M398.619 248.85C425.285 237.837 453.025 230.235 481.75 227.059C530.046 221.719 579.813 229.792 624.555 248.393C631.097 251.113 639.687 254.289 645.346 258.404L638.915 261.314L620.479 269.627C605.081 277.757 590.007 286.401 576.058 296.881L564.338 306.278C561.79 308.469 559.256 311.083 556.46 312.929C508.123 303.1 458.771 309.12 414.576 331.097C407.129 334.8 400.098 339.426 393.181 344.022C378.367 353.866 363.596 366.555 352.762 380.666C350.776 380.036 346.833 381.87 344.759 382.523C326.281 388.346 308.769 396.328 291.591 405.235C269.566 416.655 249.352 430.486 229.641 445.503C231.473 432.896 236.686 419.781 241.615 408.064C246.687 396.007 252.093 383.943 258.533 372.546C284.34 326.876 324.226 288.92 369.477 262.805L384.846 254.806C389.289 252.641 393.849 250.181 398.619 248.85Z"/>
	<defs>
		<linearGradient id="gradient_6" gradientUnits="userSpaceOnUse" x1="573.04834" y1="879.74963" x2="515.5802" y2="493.12747">
			<stop offset="0" stop-color="#0D2940"/>
			<stop offset="1" stop-color="#074166"/>
		</linearGradient>
	</defs>
	<path fill="url(#gradient_6)" d="M812.945 534.014C834.428 513.578 854.041 490.089 865.344 462.357C867.062 458.144 868.689 453.867 869.97 449.5L872.182 440.872C872.511 439.498 872.701 437.562 873.399 436.347C878.25 458.261 880.481 480.957 880.989 503.375C882.716 579.628 861.782 654.516 820.781 718.876C782.86 778.401 726.784 824.436 662.75 853.503C642.204 862.829 620.201 870.784 598.161 875.678C576.529 880.482 555.045 884.03 532.901 885.373C473.828 888.956 411.925 877.557 358.083 852.846C343.106 845.972 328.68 837.69 314.792 828.835C269.265 799.81 229.593 760.035 201.619 713.75C190.525 695.393 181.531 676.168 173.062 656.496C173.83 655.905 174.879 655.358 175.257 654.455C177.932 648.057 179.093 640.624 181.508 634C188.142 615.805 196.662 598.715 206.754 582.198C209.38 577.899 212.399 572.004 216.551 569.134C217.19 567.734 218.548 566.268 219.461 565.011L225.902 556.502L226.172 557.251C228.611 564.281 229.569 572.159 231.381 579.408C234.677 592.588 238.912 605.663 243.676 618.382C261.429 665.786 295.619 707.825 335.542 738.403C344.442 745.22 354.18 752.347 364.187 757.45C364.406 757.562 364.625 757.677 364.859 757.754L371.393 761.574C375.931 758.69 381.689 757.12 386.625 754.892L422.402 738.22L459.176 721.236C463.875 719.03 470.248 717.055 474.12 713.723C493.642 716.997 512.557 718.518 532.276 716.206C587.929 709.681 637.24 682.296 671.956 638.363C675.045 638.733 679.059 637.484 682.112 636.821C692.779 634.504 703.382 631.394 713.529 627.356C716.66 626.11 720.11 625.015 723.021 623.328L722.828 622.561C723.661 621.246 743.681 611.118 747.063 609.094C766.07 597.719 783.144 585.147 798.872 569.538C800.722 567.701 803.332 565.962 804.911 564.004L805.512 563.244C807.705 560.866 808.829 558.759 809.588 555.628C811.294 548.586 811.411 541.625 812.816 534.629L812.945 534.014Z"/>
	<path fill="#EBEBEB" d="M225.902 556.502L226.172 557.251C228.611 564.281 229.569 572.159 231.381 579.408C234.677 592.588 238.912 605.663 243.676 618.382C261.429 665.786 295.619 707.825 335.542 738.403C344.442 745.22 354.18 752.347 364.187 757.45C364.406 757.562 364.625 757.677 364.859 757.754L371.393 761.574C376.246 765.231 382.751 767.949 388.264 770.525C404.964 778.328 421.762 785.043 439.605 789.823C485.62 802.15 535.007 802.475 581.193 790.903C595.193 787.396 609.17 782.349 622.52 776.91C635.177 771.752 647.573 766.224 659.406 759.34C684.861 744.532 708.381 726.105 728.107 704.176C759.439 669.345 780.346 627.153 792.317 582.094C793.433 580.018 795.732 578.364 797.471 576.755L806.172 568.334C798.581 608.056 782.691 646.369 760.274 679.981C752.118 692.211 742.908 703.193 732.915 713.953C717.191 730.883 699.067 746.797 679.878 759.693C646.774 781.94 606.847 798.104 567.742 805.827C504.664 818.283 440.768 809.738 382.897 781.624C372.135 776.395 361.252 770.894 351.308 764.221C331.249 750.761 312.265 736.177 295.25 718.943C255.014 678.19 227.677 625.168 216.551 569.134C217.19 567.734 218.548 566.268 219.461 565.011L225.902 556.502Z"/>
	<defs>
		<linearGradient id="gradient_7" gradientUnits="userSpaceOnUse" x1="634.96405" y1="771.23706" x2="572.04022" y2="654.22968">
			<stop offset="0" stop-color="#464F5C"/>
			<stop offset="1" stop-color="#676E7A"/>
		</linearGradient>
	</defs>
	<path fill="url(#gradient_7)" d="M792.317 582.094C780.346 627.153 759.439 669.345 728.107 704.176C708.381 726.105 684.861 744.532 659.406 759.34C647.573 766.224 635.177 771.752 622.52 776.91C609.17 782.349 595.193 787.396 581.193 790.903C535.007 802.475 485.62 802.15 439.605 789.823C421.762 785.043 404.964 778.328 388.264 770.525C382.751 767.949 376.246 765.231 371.393 761.574C375.931 758.69 381.689 757.12 386.625 754.892L422.402 738.22L459.176 721.236C463.875 719.03 470.248 717.055 474.12 713.723C493.642 716.997 512.557 718.518 532.276 716.206C587.929 709.681 637.24 682.296 671.956 638.363C675.045 638.733 679.059 637.484 682.112 636.821C692.779 634.504 703.382 631.394 713.529 627.356C716.66 626.11 720.11 625.015 723.021 623.328C729.829 620.93 736.55 617.485 742.961 614.192C753.934 608.557 764.676 602.394 774.759 595.267L785.743 587.184C787.97 585.437 789.789 583.454 792.317 582.094Z"/>
</svg>
